<mxfile host="65bd71144e">
    <diagram id="NSp_E1Tnpz_RAbhvVRZO" name="Page-1">
        <mxGraphModel dx="579" dy="214" grid="1" gridSize="10" guides="1" tooltips="1" connect="1" arrows="1" fold="1" page="1" pageScale="1" pageWidth="850" pageHeight="1100" math="0" shadow="0">
            <root>
                <mxCell id="0"/>
                <mxCell id="1" parent="0"/>
                <mxCell id="3" value="Main" style="shape=umlLifeline;perimeter=lifelinePerimeter;whiteSpace=wrap;html=1;container=1;collapsible=0;recursiveResize=0;outlineConnect=0;" parent="1" vertex="1">
                    <mxGeometry x="10" y="20" width="100" height="550" as="geometry"/>
                </mxCell>
                <mxCell id="8" value="" style="html=1;points=[];perimeter=orthogonalPerimeter;" parent="3" vertex="1">
                    <mxGeometry x="45" y="120" width="10" height="430" as="geometry"/>
                </mxCell>
                <mxCell id="4" value="AST" style="shape=umlLifeline;perimeter=lifelinePerimeter;whiteSpace=wrap;html=1;container=1;collapsible=0;recursiveResize=0;outlineConnect=0;" parent="1" vertex="1">
                    <mxGeometry x="400" y="20" width="100" height="550" as="geometry"/>
                </mxCell>
                <mxCell id="26" value="" style="html=1;points=[];perimeter=orthogonalPerimeter;" parent="4" vertex="1">
                    <mxGeometry x="45" y="350" width="10" height="80" as="geometry"/>
                </mxCell>
                <mxCell id="5" value="Tokenizer" style="shape=umlLifeline;perimeter=lifelinePerimeter;whiteSpace=wrap;html=1;container=1;collapsible=0;recursiveResize=0;outlineConnect=0;" parent="1" vertex="1">
                    <mxGeometry x="270" y="20" width="100" height="550" as="geometry"/>
                </mxCell>
                <mxCell id="30" value="" style="html=1;points=[];perimeter=orthogonalPerimeter;" parent="5" vertex="1">
                    <mxGeometry x="45" y="120" width="10" height="170" as="geometry"/>
                </mxCell>
                <mxCell id="43" value="Tokenizar" style="edgeStyle=orthogonalEdgeStyle;html=1;align=left;spacingLeft=2;endArrow=block;rounded=0;entryX=1;entryY=0;" parent="5" edge="1">
                    <mxGeometry x="0.0133" relative="1" as="geometry">
                        <mxPoint x="56" y="160" as="sourcePoint"/>
                        <Array as="points">
                            <mxPoint x="86" y="160"/>
                        </Array>
                        <mxPoint x="61" y="180" as="targetPoint"/>
                        <mxPoint as="offset"/>
                    </mxGeometry>
                </mxCell>
                <mxCell id="52" value="LeerLisp()" style="html=1;verticalAlign=bottom;endArrow=block;entryX=0;entryY=0;" edge="1" parent="5">
                    <mxGeometry x="0.004" relative="1" as="geometry">
                        <mxPoint x="-80.5" y="150.0000000000001" as="sourcePoint"/>
                        <mxPoint x="45" y="150.0000000000001" as="targetPoint"/>
                        <mxPoint as="offset"/>
                    </mxGeometry>
                </mxCell>
                <mxCell id="6" value="Lisp Reader" style="shape=umlLifeline;perimeter=lifelinePerimeter;whiteSpace=wrap;html=1;container=1;collapsible=0;recursiveResize=0;outlineConnect=0;" parent="1" vertex="1">
                    <mxGeometry x="140" y="20" width="100" height="550" as="geometry"/>
                </mxCell>
                <mxCell id="19" value="" style="html=1;points=[];perimeter=orthogonalPerimeter;" parent="6" vertex="1">
                    <mxGeometry x="45" y="120" width="10" height="60" as="geometry"/>
                </mxCell>
                <mxCell id="7" value="Node" style="shape=umlLifeline;perimeter=lifelinePerimeter;whiteSpace=wrap;html=1;container=1;collapsible=0;recursiveResize=0;outlineConnect=0;" parent="1" vertex="1">
                    <mxGeometry x="520" y="20" width="100" height="550" as="geometry"/>
                </mxCell>
                <mxCell id="55" value="" style="html=1;points=[];perimeter=orthogonalPerimeter;" vertex="1" parent="7">
                    <mxGeometry x="45" y="310" width="10" height="80" as="geometry"/>
                </mxCell>
                <mxCell id="57" value="AST()" style="html=1;verticalAlign=bottom;endArrow=block;entryX=1;entryY=0.6;entryDx=0;entryDy=0;entryPerimeter=0;dashed=1;" edge="1" parent="7">
                    <mxGeometry x="0.004" relative="1" as="geometry">
                        <mxPoint x="45.5" y="367" as="sourcePoint"/>
                        <mxPoint x="-69" y="367" as="targetPoint"/>
                        <mxPoint as="offset"/>
                    </mxGeometry>
                </mxCell>
                <mxCell id="27" value="ArrayList&amp;lt;ArrayList&amp;lt;String&amp;gt;&amp;gt;" style="html=1;verticalAlign=bottom;endArrow=block;dashed=1;" parent="1" target="47" edge="1">
                    <mxGeometry x="0.0162" relative="1" as="geometry">
                        <mxPoint x="319.5" y="233" as="sourcePoint"/>
                        <mxPoint x="449.5" y="233" as="targetPoint"/>
                        <mxPoint as="offset"/>
                    </mxGeometry>
                </mxCell>
                <mxCell id="45" value="runApp()" style="edgeStyle=none;html=1;exitX=0;exitY=0.077;exitDx=0;exitDy=0;exitPerimeter=0;" parent="1" source="8" target="6" edge="1">
                    <mxGeometry relative="1" as="geometry">
                        <mxPoint x="325" y="480" as="sourcePoint"/>
                    </mxGeometry>
                </mxCell>
                <mxCell id="47" value="Parser" style="shape=umlLifeline;perimeter=lifelinePerimeter;whiteSpace=wrap;html=1;container=1;collapsible=0;recursiveResize=0;outlineConnect=0;" vertex="1" parent="1">
                    <mxGeometry x="640" y="20" width="100" height="550" as="geometry"/>
                </mxCell>
                <mxCell id="48" value="" style="html=1;points=[];perimeter=orthogonalPerimeter;" vertex="1" parent="47">
                    <mxGeometry x="45" y="120" width="10" height="240" as="geometry"/>
                </mxCell>
                <mxCell id="54" value="" style="html=1;points=[];perimeter=orthogonalPerimeter;" vertex="1" parent="47">
                    <mxGeometry x="45" y="400" width="10" height="80" as="geometry"/>
                </mxCell>
                <mxCell id="58" value="Raiz()" style="html=1;verticalAlign=bottom;endArrow=block;" edge="1" parent="47">
                    <mxGeometry x="0.004" relative="1" as="geometry">
                        <mxPoint x="-190.5" y="421.0000000000001" as="sourcePoint"/>
                        <mxPoint x="55" y="421" as="targetPoint"/>
                        <mxPoint as="offset"/>
                    </mxGeometry>
                </mxCell>
                <mxCell id="49" value="Evaluador" style="shape=umlLifeline;perimeter=lifelinePerimeter;whiteSpace=wrap;html=1;container=1;collapsible=0;recursiveResize=0;outlineConnect=0;" vertex="1" parent="1">
                    <mxGeometry x="760" y="20" width="100" height="550" as="geometry"/>
                </mxCell>
                <mxCell id="50" value="" style="html=1;points=[];perimeter=orthogonalPerimeter;" vertex="1" parent="49">
                    <mxGeometry x="45" y="440" width="10" height="90" as="geometry"/>
                </mxCell>
                <mxCell id="59" value="Evaluar" style="edgeStyle=orthogonalEdgeStyle;html=1;align=left;spacingLeft=2;endArrow=block;rounded=0;entryX=1;entryY=0;" edge="1" parent="49">
                    <mxGeometry x="0.0133" relative="1" as="geometry">
                        <mxPoint x="55" y="460" as="sourcePoint"/>
                        <Array as="points">
                            <mxPoint x="85" y="460"/>
                        </Array>
                        <mxPoint x="60" y="480" as="targetPoint"/>
                        <mxPoint as="offset"/>
                    </mxGeometry>
                </mxCell>
                <mxCell id="60" value="AST(raiz)" style="html=1;verticalAlign=bottom;endArrow=block;dashed=1;dashPattern=8 8;" edge="1" parent="49">
                    <mxGeometry x="0.0087" relative="1" as="geometry">
                        <mxPoint x="-70" y="470" as="sourcePoint"/>
                        <mxPoint x="45" y="470" as="targetPoint"/>
                        <mxPoint as="offset"/>
                    </mxGeometry>
                </mxCell>
                <mxCell id="53" value="HashMap&amp;lt;String, ArrayList&amp;lt;String&amp;gt;&amp;gt;" style="html=1;verticalAlign=bottom;endArrow=block;dashed=1;" edge="1" parent="1" source="5" target="47">
                    <mxGeometry x="0.0162" relative="1" as="geometry">
                        <mxPoint x="329.5" y="243" as="sourcePoint"/>
                        <mxPoint x="699.5" y="243" as="targetPoint"/>
                        <mxPoint as="offset"/>
                    </mxGeometry>
                </mxCell>
                <mxCell id="56" value="Nodo()" style="html=1;verticalAlign=bottom;endArrow=block;entryX=1;entryY=0.6;entryDx=0;entryDy=0;entryPerimeter=0;" edge="1" parent="1">
                    <mxGeometry x="0.004" relative="1" as="geometry">
                        <mxPoint x="689.5" y="359" as="sourcePoint"/>
                        <mxPoint x="575" y="359" as="targetPoint"/>
                        <mxPoint as="offset"/>
                    </mxGeometry>
                </mxCell>
            </root>
        </mxGraphModel>
    </diagram>
</mxfile>